<svg viewBox="0 0 24 24" fill="none" xmlns="http://www.w3.org/2000/svg">
  <path d="M12 7.5C14.76 7.5 17 9.74 17 12.5C17 13.01 16.92 13.5 16.78 13.96L19.82 17C21.21 15.79 22.31 14.25 23 12.5C21.27 8.11 17 5 12 5C10.73 5 9.51 5.2 8.36 5.57L10.53 7.74C11 7.6 11.49 7.5 12 7.5ZM2.71 3.16C2.32 3.55 2.32 4.18 2.71 4.57L5.68 7.54C4.06 8.83 2.77 10.5 1 12.5C2.73 16.89 7 20 12 20C13.52 20 14.97 19.7 16.31 19.18L19.03 21.9C19.42 22.29 20.05 22.29 20.44 21.9C20.83 21.51 20.83 20.88 20.44 20.49L4.13 4.16C3.74 3.77 3.1 3.77 2.71 3.16ZM12 17.5C9.24 17.5 7 15.26 7 12.5C7 11.73 7.18 11 7.49 10.36L8.97 11.84C8.96 11.89 8.96 11.95 8.96 12C8.96 13.66 10.3 15 11.96 15C12.01 15 12.07 15 12.12 14.99L13.6 16.47C13.11 16.65 12.57 16.75 12 16.75V17.5ZM14.97 11.17C14.82 9.77 13.72 8.68 12.33 8.53L14.97 11.17Z" fill="currentColor"/>
</svg>

